<svg xmlns="http://www.w3.org/2000/svg" version="1.0" width="700.000000pt" height="700.000000pt" viewBox="0 0 700.000000 700.000000" preserveAspectRatio="xMidYMid meet">
<metadata>
Created by potrace 1.14, written by Peter Selinger 2001-2017
</metadata>
<g transform="translate(0.000000,700.000000) scale(0.100000,-0.100000)" fill="#000000" stroke="none">
<path d="M3280 6994 c-19 -2 -84 -9 -145 -14 -1242 -121 -2359 -944 -2853 -2105 -135 -318 -225 -663 -264 -1010 -17 -155 -17 -575 0 -730 92 -827 450 -1562 1043 -2140 571 -556 1251 -877 2074 -977 134 -16 591 -16 730 0 681 79 1255 312 1795 728 147 113 478 444 594 594 411 531 647 1112 728 1795 16 139 16 595 0 730 -84 690 -316 1262 -728 1795 -115 149 -446 480 -594 594 -530 408 -1092 640 -1750 722 -117 15 -552 27 -630 18z m1521 -1753 c74 -28 129 -68 178 -131 61 -77 85 -148 85 -255 0 -107 -24 -178 -85 -256 -23 -28 -425 -508 -896 -1067 -470 -559 -990 -1178 -1155 -1374 -165 -196 -317 -368 -337 -382 -199 -138 -465 -90 -591 106 -89 136 -91 313 -7 444 14 22 415 503 892 1069 476 567 1004 1193 1171 1392 167 199 318 373 336 388 108 91 272 117 409 66z m-55 -2735 c161 -43 281 -175 302 -334 29 -213 -96 -403 -302 -458 -31 -8 -104 -14 -188 -14 l-138 0 0 410 0 410 138 0 c84 0 157 -6 188 -14z"/>
</g>
</svg>