<svg xmlns="http://www.w3.org/2000/svg" width="46" height="46" viewBox="0 0 46 46" fill="none">
<path d="M41.3645 0H4.59676C2.0683 0 0 2.0683 0 4.59676V41.3661C0 43.8945 2.0683 45.9628 4.59676 45.9628H41.3661C43.8945 45.9628 45.9628 43.8945 45.9628 41.3661V4.59676C45.9628 2.0683 43.8945 0 41.3661 0H41.3645ZM38.9931 25.5171C38.6019 26.5577 38.0664 27.4106 37.4026 28.0552C36.7388 28.6997 35.9724 29.1823 35.1227 29.4918C34.2761 29.7996 33.3911 29.9551 32.4948 29.9551C31.4574 29.9551 30.5115 29.7884 29.6826 29.4613C28.9178 29.1583 28.2396 28.7446 27.6656 28.2283C27.1236 29.0188 26.4037 29.6826 25.5267 30.2068C24.5839 30.768 23.4616 31.0534 22.1886 31.0534C20.7905 31.0534 19.5206 30.7071 18.4143 30.0273C17.3096 29.3475 16.4246 28.3999 15.7832 27.2134C15.1419 26.0286 14.818 24.6753 14.818 23.1923C14.818 21.7092 15.1403 20.3592 15.7736 19.1807C16.4085 18.0007 17.2968 17.0531 18.4143 16.3669C19.5334 15.679 20.8289 15.3311 22.2639 15.3311C23.3542 15.3311 24.3707 15.5491 25.2846 15.9804C26.051 16.3428 26.7084 16.8206 27.2423 17.4074V15.748H31.2234V23.9314C31.2234 24.2793 31.2811 24.6336 31.3949 24.9864C31.5039 25.3263 31.6996 25.6117 31.9753 25.8362C32.2463 26.0558 32.6696 26.168 33.2323 26.168C33.6524 26.168 34.0228 26.043 34.3611 25.7848C34.6978 25.5299 34.972 25.1034 35.1756 24.5198C35.3824 23.9218 35.4882 23.1073 35.4882 22.0972C35.4882 20.2165 35.1291 18.5682 34.4188 17.199C33.7085 15.8281 32.7626 14.6817 31.6098 13.7935C30.4522 12.902 29.1486 12.2302 27.7377 11.7973C26.322 11.3628 24.8886 11.1432 23.4744 11.1432C21.6402 11.1432 19.9679 11.4687 18.5009 12.1132C17.0338 12.7561 15.7672 13.6444 14.7347 14.7507C13.7005 15.8586 12.8972 17.1332 12.3473 18.5378C11.7957 19.9423 11.5168 21.4206 11.5168 22.9309C11.5168 24.5278 11.8214 26.035 12.421 27.4138C13.0207 28.7927 13.8673 30.016 14.9367 31.0486C16.0061 32.0811 17.2808 32.9004 18.7222 33.4825C20.1652 34.0645 21.7444 34.3595 23.4167 34.3595C25.198 34.3595 26.7468 34.05 28.0167 33.4392C29.2881 32.8283 30.2646 32.1453 30.9155 31.4077L31.0101 31.3003L35.1147 34.01L35.012 34.1494C34.3739 35.0169 33.5065 35.8586 32.4339 36.6523C31.358 37.4475 30.0513 38.1017 28.5474 38.5955C27.0435 39.0909 25.3054 39.341 23.3798 39.341C21.0502 39.341 18.8312 38.937 16.7853 38.1385C14.7379 37.3401 12.9133 36.2001 11.3612 34.7491C9.8076 33.2965 8.57624 31.5504 7.70082 29.5607C6.8254 27.5694 6.38128 25.3519 6.38128 22.9694C6.38128 20.5868 6.82861 18.3758 7.71044 16.3957C8.59067 14.4188 9.82204 12.676 11.3693 11.2169C12.9165 9.7595 14.7379 8.61793 16.7837 7.82588C18.8296 7.03383 21.0422 6.633 23.359 6.633C25.6758 6.633 27.6832 6.99535 29.628 7.71204C31.5729 8.42874 33.3157 9.46289 34.8052 10.7888C36.2979 12.1164 37.478 13.7294 38.3165 15.5812C39.1551 17.4347 39.5799 19.5254 39.5799 21.7957C39.5799 23.2339 39.3827 24.4877 38.9931 25.5235V25.5171Z" fill="white"/>
<path d="M25.2993 19.5783C24.7093 19.2352 24.0311 19.062 23.2839 19.062C22.5368 19.062 21.889 19.2384 21.2862 19.5879C20.6849 19.9374 20.2023 20.4216 19.8528 21.0309C19.5033 21.6386 19.3269 22.3649 19.3269 23.189C19.3269 24.0131 19.4985 24.6817 19.8352 25.283C20.1703 25.8826 20.64 26.3556 21.2285 26.6859C21.8185 27.0178 22.5031 27.1845 23.2663 27.1845C24.0295 27.1845 24.7317 27.013 25.3218 26.6763C25.9102 26.3396 26.3832 25.8618 26.7247 25.2541C27.0678 24.6464 27.2426 23.9442 27.2426 23.1698C27.2426 22.3953 27.0646 21.6338 26.7151 21.0197C26.3655 20.4056 25.8894 19.9198 25.3009 19.5767L25.2993 19.5783Z" fill="white"/>
</svg>