<svg xmlns="http://www.w3.org/2000/svg" width="46" height="46" viewBox="0 0 46 46" fill="none">
<path d="M41.4037 0H4.63339C2.10544 0 0.0371094 2.06833 0.0371094 4.59628V41.3665C0.0371094 43.8945 2.10544 45.9628 4.63339 45.9628H41.4037C43.9316 45.9628 45.9999 43.8945 45.9999 41.3665V4.59628C45.9999 2.06833 43.9316 0 41.4037 0ZM13.826 39.0684H6.93153V18.3851H13.826V39.0684ZM10.3787 14.4783C8.0806 14.4783 6.24209 12.6398 6.24209 10.3416C6.24209 8.0435 8.0806 6.20498 10.3787 6.20498C12.6769 6.20498 14.5154 8.0435 14.5154 10.3416C14.5154 12.6398 12.6769 14.4783 10.3787 14.4783ZM39.1055 39.0684H32.2111V26.8883C32.2111 25.0497 30.6024 23.441 28.7639 23.441C26.9254 23.441 25.3167 25.0497 25.3167 26.8883V39.0684H18.4222V18.3851H25.3167V21.1429C26.4657 19.3044 28.9937 17.9255 31.062 17.9255C35.4285 17.9255 39.1055 21.6025 39.1055 25.969V39.0684Z" fill="white"/>
</svg>