<svg xmlns="http://www.w3.org/2000/svg" width="403" height="65" viewBox="0 0 403 65" fill="none">
<path d="M86.1512 48.0877L103.988 24.7463H88.4349V19.3237H115.981L98.1205 42.6652H115.114V48.0877H86.1629H86.1512Z" fill="white"/>
<path d="M136.663 48.99C131.745 48.99 128.196 47.9711 126.029 45.9332C123.863 43.8954 122.785 40.5459 122.785 35.8846V19.3477H129.777V34.3152C129.777 37.5711 130.292 39.8783 131.335 41.2368C132.377 42.5954 134.145 43.2747 136.652 43.2747C139.158 43.2747 140.927 42.5954 141.957 41.2368C142.988 39.8783 143.503 37.5711 143.503 34.3152V19.3477H150.495V35.8846C150.495 40.5459 149.417 43.8954 147.263 45.9332C145.108 47.9711 141.571 48.99 136.652 48.99H136.663Z" fill="white"/>
<path d="M160.731 48.0877V19.3354H167.723V23.5165C168.73 21.8651 169.995 20.612 171.518 19.7453C173.029 18.8786 174.715 18.4336 176.542 18.4336C177.479 18.4336 178.451 18.5624 179.447 18.8318C180.442 19.0894 181.309 19.4291 182.012 19.839L179.095 25.7417C178.498 25.3435 177.784 25.0507 176.975 24.8399C176.156 24.6291 175.406 24.5354 174.715 24.5354C173.532 24.5354 172.408 24.8399 171.33 25.4489C170.253 26.0579 169.386 26.8543 168.719 27.8264C168.051 28.7985 167.723 29.8525 167.723 30.9768V48.1111H160.731V48.0877Z" fill="white"/>
<path d="M201.031 48.99C196.112 48.99 192.563 47.9711 190.397 45.9332C188.23 43.8954 187.153 40.5459 187.153 35.8846V19.3477H194.145V34.3152C194.145 37.5711 194.66 39.8783 195.702 41.2368C196.745 42.5954 198.513 43.2747 201.019 43.2747C203.526 43.2747 205.294 42.5954 206.325 41.2368C207.355 39.8783 207.871 37.5711 207.871 34.3152V19.3477H214.863V35.8846C214.863 40.5459 213.785 43.8954 211.63 45.9332C209.475 47.9711 205.938 48.99 201.019 48.99H201.031Z" fill="white"/>
<path d="M225.966 48.0876V19.3354H228.94V23.4345C229.994 21.83 231.341 20.5885 232.981 19.7219C234.632 18.8552 236.471 18.4336 238.509 18.4336C240.921 18.4336 243.006 18.984 244.739 20.0849C246.484 21.1858 247.667 22.7084 248.312 24.6291C249.342 22.7786 250.724 21.2795 252.457 20.1318C254.191 18.9958 256.275 18.4219 258.735 18.4219C260.773 18.4219 262.588 18.8435 264.157 19.675C265.727 20.5066 266.98 21.7246 267.894 23.3174C268.807 24.9102 269.275 26.8777 269.275 29.2201V48.0876H266.301V30.0867C266.301 27.2759 265.563 25.0507 264.087 23.3994C262.612 21.748 260.656 20.9282 258.243 20.9282C256.545 20.9282 254.999 21.303 253.605 22.0642C252.223 22.8255 251.122 23.7858 250.314 24.9453C249.506 26.1048 249.108 27.2994 249.108 28.5174V48.0876H246.133V29.6066C246.133 26.948 245.407 24.8399 243.955 23.2705C242.503 21.7129 240.582 20.9282 238.181 20.9282C236.518 20.9282 234.984 21.2912 233.578 22.0057C232.173 22.7318 231.048 23.6336 230.205 24.7345C229.362 25.8354 228.94 26.948 228.94 28.0957V48.0876H225.966Z" fill="#FF008A"/>
<path d="M294.749 48.9899C291.739 48.9899 289.057 48.3224 286.715 46.9872C284.372 45.6521 282.545 43.8368 281.21 41.5647C279.875 39.2926 279.219 36.7278 279.219 33.8818C279.219 31.7152 279.606 29.689 280.39 27.8152C281.163 25.9413 282.241 24.3016 283.623 22.8962C285.005 21.4908 286.586 20.4016 288.401 19.6052C290.205 18.8206 292.137 18.4224 294.175 18.4224C296.892 18.4224 299.352 19.0431 301.542 20.2845C303.743 21.526 305.512 23.2476 306.847 25.4377C308.182 27.6278 308.92 30.1224 309.049 32.9332V33.4251C309.049 33.5656 309.049 33.7296 309.025 33.917H282.147C282.147 36.3296 282.686 38.4845 283.775 40.3818C284.864 42.2674 286.363 43.7548 288.284 44.8323C290.205 45.9097 292.383 46.4485 294.843 46.4485C297.302 46.4485 299.293 45.9566 301.179 44.9611C303.064 43.9656 304.587 42.5602 305.746 40.7449L307.995 42.0098C306.625 44.2233 304.786 45.9332 302.479 47.1512C300.171 48.3692 297.595 48.9782 294.772 48.9782L294.749 48.9899ZM282.276 31.5746H306.062C305.816 29.5368 305.149 27.7215 304.036 26.1287C302.935 24.5359 301.53 23.2827 299.82 22.3458C298.122 21.4206 296.248 20.9521 294.198 20.9521C292.149 20.9521 290.228 21.4088 288.506 22.3341C286.785 23.2593 285.379 24.5125 284.279 26.1052C283.178 27.7098 282.498 29.5251 282.252 31.5629L282.276 31.5746Z" fill="#FF008A"/>
<path d="M331.441 48.9897C328.724 48.9897 326.288 48.3338 324.121 47.0104C321.955 45.687 320.245 43.8834 318.98 41.5761C317.715 39.2689 317.083 36.6572 317.083 33.7176C317.083 30.7779 317.715 28.1311 318.968 25.8356C320.222 23.5401 321.931 21.7365 324.11 20.4131C326.276 19.0897 328.736 18.4338 331.465 18.4338C334.194 18.4338 336.594 19.1014 338.761 20.4248C340.928 21.7599 342.603 23.587 343.785 25.9293V0.901367H346.76V48.0879H343.785V41.4356C342.591 43.7897 340.893 45.6401 338.714 46.987C336.536 48.3221 334.1 48.9897 331.43 48.9897H331.441ZM332.027 46.3545C334.346 46.3545 336.407 45.8158 338.211 44.7383C340.003 43.6608 341.42 42.1734 342.439 40.2644C343.458 38.3554 343.973 36.1888 343.973 33.7527C343.973 31.3167 343.458 29.0915 342.439 27.1824C341.42 25.2734 340.014 23.7743 338.211 22.7086C336.419 21.6311 334.358 21.0924 332.027 21.0924C329.696 21.0924 327.705 21.6311 325.902 22.7086C324.11 23.7861 322.693 25.2734 321.662 27.1824C320.631 29.0915 320.116 31.2815 320.116 33.7527C320.116 36.2239 320.631 38.3554 321.65 40.2527C322.669 42.15 324.075 43.6491 325.878 44.7266C327.67 45.8158 329.731 46.3545 332.027 46.3545Z" fill="#FF008A"/>
<path d="M360.826 13.6323C360.451 13.6323 360.1 13.5386 359.783 13.3512C359.467 13.1638 359.209 12.9061 359.022 12.5899C358.835 12.2737 358.741 11.9223 358.741 11.5476C358.741 11.1728 358.835 10.798 359.022 10.4935C359.209 10.189 359.467 9.93136 359.783 9.74397C360.1 9.55658 360.451 9.46289 360.826 9.46289C361.224 9.46289 361.575 9.55658 361.88 9.74397C362.184 9.93136 362.442 10.1773 362.629 10.4935C362.817 10.798 362.91 11.1494 362.91 11.5476C362.91 11.9458 362.817 12.2737 362.629 12.5899C362.442 12.9061 362.196 13.1638 361.88 13.3512C361.575 13.5386 361.224 13.6323 360.826 13.6323ZM359.338 48.0881V19.3359H362.313V48.0881H359.338Z" fill="#FF008A"/>
<path d="M387.248 48.9895C384.53 48.9895 382.094 48.3336 379.928 47.0102C377.761 45.6868 376.051 43.8831 374.786 41.5759C373.521 39.2687 372.889 36.657 372.889 33.7174C372.889 30.7777 373.521 28.1309 374.775 25.8354C376.028 23.5399 377.738 21.7363 379.904 20.4129C382.071 19.0895 384.519 18.4336 387.248 18.4336C389.976 18.4336 392.448 19.1012 394.661 20.4246C396.875 21.7597 398.514 23.5867 399.603 25.9291V19.3354H402.578V48.0877H399.603V41.4354C398.385 43.7895 396.699 45.6399 394.532 46.9867C392.366 48.3219 389.941 48.9895 387.248 48.9895ZM387.868 46.3543C390.187 46.3543 392.248 45.8156 394.029 44.7381C395.809 43.6606 397.226 42.1732 398.245 40.2642C399.264 38.3552 399.779 36.1768 399.779 33.7174C399.779 31.2579 399.264 29.0561 398.245 27.1588C397.226 25.2615 395.82 23.7741 394.029 22.6967C392.237 21.6192 390.187 21.0804 387.868 21.0804C385.549 21.0804 383.488 21.6192 381.708 22.6967C379.916 23.7741 378.511 25.2615 377.48 27.1588C376.449 29.0561 375.934 31.2462 375.934 33.7174C375.934 36.1886 376.449 38.3435 377.48 40.2525C378.511 42.1498 379.916 43.6489 381.708 44.7264C383.5 45.8156 385.549 46.3543 387.868 46.3543Z" fill="#FF008A"/>
<path d="M41.0385 20.2722V44.9371C41.0385 47.2462 42.9104 49.1182 45.2195 49.1182H45.2547C47.5638 49.1182 49.4358 47.2462 49.4358 44.9371V20.2722C49.4358 17.9631 47.5638 16.0911 45.2547 16.0911H45.2195C42.9104 16.0911 41.0385 17.9631 41.0385 20.2722Z" fill="url(#paint0_linear_150_3)"/>
<path d="M15.5772 20.261L15.5772 44.9259C15.5772 47.235 17.4491 49.1069 19.7583 49.1069H19.7934C22.1026 49.1069 23.9745 47.235 23.9745 44.9259V20.261C23.9745 17.9518 22.1026 16.0799 19.7934 16.0799H19.7583C17.4491 16.0799 15.5772 17.9518 15.5772 20.261Z" fill="url(#paint1_linear_150_3)"/>
<path d="M48.2058 17.1106C46.5779 15.4827 43.9076 15.4827 42.268 17.1106L32.5004 26.8782L22.7328 17.1106C21.1049 15.4827 18.4346 15.4827 16.795 17.1106C15.1671 18.7385 15.1671 21.4088 16.795 23.0484L29.3148 35.5683C30.1815 36.4349 31.3526 36.8448 32.5004 36.7863C33.6481 36.8448 34.8193 36.4466 35.686 35.5683L48.2058 23.0484C49.8337 21.4205 49.8337 18.7502 48.2058 17.1106Z" fill="white"/>
<path d="M32.5 65C14.5811 65 0 50.4189 0 32.5C0 14.5811 14.5811 0 32.5 0C50.4189 0 65 14.5811 65 32.5C65 50.4189 50.4189 65 32.5 65ZM63.1378 32.5C63.1378 15.6117 49.3883 1.86216 32.5 1.86216C15.6117 1.86216 1.86216 15.6117 1.86216 32.5C1.86216 49.3883 15.6 63.1378 32.5 63.1378C49.4 63.1378 63.1378 49.4 63.1378 32.5Z" fill="white"/>
<defs>
<linearGradient id="paint0_linear_150_3" x1="45.2312" y1="16.0794" x2="45.2312" y2="49.1065" gradientUnits="userSpaceOnUse">
<stop stop-color="#2B095C"/>
<stop offset="1" stop-color="#00C0F5"/>
</linearGradient>
<linearGradient id="paint1_linear_150_3" x1="19.77" y1="49.1069" x2="19.77" y2="16.0799" gradientUnits="userSpaceOnUse">
<stop stop-color="#FF008A"/>
<stop offset="1" stop-color="#2B095C"/>
</linearGradient>
</defs>
</svg>